<svg xmlns="http://www.w3.org/2000/svg" viewBox="0 0 400 100" fill="none">
  <defs>
    <linearGradient id="g" x1="0" y1="0" x2="1" y2="1">
      <stop offset="0%" stop-color="#06B6D4"/>
      <stop offset="100%" stop-color="#0891B2"/>
    </linearGradient>
  </defs>
  <!-- D stylized tooth -->
  <g transform="translate(0, 12)">
    <rect x="2" y="2" width="48" height="48" rx="12" fill="url(#g)"/>
    <!-- Tooth shape inside D -->
    <path d="M15 28C15 22 18 18 26 18C34 18 37 22 37 28L36 40C35 44 33 46 30 46C28 46 27 44 26 40C25 44 24 46 22 46C19 46 17 44 16 40Z" fill="white" opacity="0.95"/>
    <!-- Clean line -->
    <rect x="14" y="34" width="24" height="2" rx="1" fill="#0891B2" opacity="0.15"/>
  </g>
  <!-- Text -->
  <text x="68" y="48" font-family="'Inter',system-ui,sans-serif" font-size="24" font-weight="700" fill="#0F172A">Dentistas</text>
  <text x="68" y="66" font-family="'Inter',system-ui,sans-serif" font-size="14" font-weight="500" fill="#06B6D4" letter-spacing="2">SANTA COLOMA</text>
</svg>
